# AST/ASF file generated using VICON BodyLanguage
# -----------------------------------------------
:version 1.10
:name VICON
:units
  mass 1.0
  length 0.45
  angle deg
:documentation
   .ast/.asf automatically generated from VICON data using
   VICON BodyBuilder and BodyLanguage model FoxedUp or BRILLIANT.MOD
:root
   order TX TY TZ RX RY RZ
   axis XYZ
   position 0 0 0  
   orientation 0 0 0 
:bonedata
  begin
     id 1 
     name lhipjoint
     direction 0.645893 -0.654526 0.392961 
     length 2.38111 
     axis 0 0 0  XYZ
  end
  begin
     id 2 
     name lfemur
     direction 0.34202 -0.939693 0  
     length 6.6822  
     axis 0 0 20  XYZ
    dof rx ry rz
    limits (-160.0 20.0)
           (-70.0 70.0)
           (-60.0 70.0)
  end
  begin
     id 3 
     name ltibia
     direction 0.34202 -0.939693 0   
     length 6.93904   
     axis 0 0 20   XYZ
    dof rx
    limits (-10.0 170.0)
  end
  begin
     id 4 
     name lfoot
     direction 0.0694967 -0.190941 0.979138   
     length 2.13616   
     axis -90 7.62852e-016 20   XYZ
    dof rx rz
    limits (-45.0 90.0)
           (-70.0 20.0)
  end
  begin
     id 5 
     name ltoes
     direction 1.535e-011 -4.2202e-011 1   
     length 1.07536   
     axis -90 7.62852e-016 20   XYZ
    dof rx
    limits (-90.0 20.0)
  end
  begin
     id 6 
     name rhipjoint
     direction -0.700219 -0.612087 0.367481   
     length 2.54621  
     axis 0 0 0  XYZ 
  end
  begin
     id 7 
     name rfemur
     direction -0.34202 -0.939693 0   
     length 6.55353   
     axis 0 0 -20   XYZ
    dof rx ry rz
    limits (-160.0 20.0)
           (-70.0 70.0)
           (-70.0 60.0)
  end
  begin
     id 8 
     name rtibia
     direction -0.34202 -0.939693 0   
     length 6.8736   
     axis 0 0 -20   XYZ
    dof rx
    limits (-10.0 170.0)
 end
 begin
     id 9 
     name rfoot
     direction -0.0679995 -0.186827 0.980037   
     length 2.1218  
     axis -90 -7.62852e-016 -20   XYZ
    dof rx rz
    limits (-45.0 90.0)
           (-20.0 70.0)
  end
  begin
     id 10 
     name rtoes
     direction -1.53589e-011 -4.21772e-011 1   
     length 1.06864   
     axis -90 -7.62852e-016 -20   XYZ
    dof rx
    limits (-90.0 20.0)
  end
  begin
     id 11 
     name lowerback
     direction -0.0416607 0.996347 -0.0745409   
     length 2.12205   
     axis 0 0 0   XYZ
    dof rx ry rz
    limits (-20.0 45.0)
           (-30.0 30.0)
           (-30.0 30.0)
  end
  begin
     id 12 
     name upperback
     direction -0.000153993 0.999276 -0.0380568   
     length 2.12759   
     axis 0 0 0   XYZ
    dof rx ry rz
    limits (-20.0 45.0)
           (-30.0 30.0)
           (-30.0 30.0)
  end
  begin
     id 13 
     name thorax
     direction 0.0187671 0.999821 -0.00241421   
     length 2.13704   
     axis 0 0 0   XYZ
    dof rx ry rz
    limits (-20.0 45.0)
           (-30.0 30.0)
           (-30.0 30.0)
  end
  begin
     id 14 
     name lowerneck
     direction 0.0268157 0.964865 0.261374   
     length 1.65253   
     axis 0 0 0   XYZ
    dof rx ry rz
    limits (-20.0 45.0)
           (-30.0 30.0)
           (-30.0 30.0)
  end
  begin
     id 15 
     name upperneck
     direction 0.00263774 0.939908 -0.341418   
     length 1.72375   
     axis 0 0 0   XYZ
    dof rx ry rz
    limits (-20.0 45.0)
           (-30.0 30.0)
           (-30.0 30.0)
  end
  begin
     id 16
     name head
     direction -0.00526001 0.989001 -0.147818  
     length 1.74878  
     axis 0 0 0   XYZ
    dof rx ry rz
    limits (-20.0 45.0)
           (-30.0 30.0)
           (-30.0 30.0)
  end
  begin
     id 17 
     name lclavicle
     direction 0.881214 0.461162 -0.103884  
     length 3.25108  
     axis 0 0 0   XYZ
    dof ry rz
    limits (-20.0 10.0)
           (0.0 20.0)
  end
  begin
     id 18 
     name lhumerus
     direction 1 -4.4899e-011 3.38092e-027   
     length 4.87408   
     axis 180 -30 -90   XYZ
    dof rx ry rz
    limits (-60.0 90.0)
           (-90.0 90.0)
           (-90.0 90.0)
  end
  begin
     id 19
     name lradius
     direction 1 -4.48931e-011 9.96288e-027   
     length 2.76729   
     axis 180 -30 -90   XYZ
    dof rx
    limits (-10.0 170.0)
  end
  begin
     id 20
     name lwrist
     direction 1 -4.4896e-011 1.50617e-026   
     length 1.38364   
     axis -9.31234e-015 90 90   XYZ
    dof ry
    limits (-180.0 0.0)
 end
  begin
     id 21 
     name lhand
     direction 1 -4.49038e-011 3.01286e-026   
     length 0.98922   
     axis -1.92217e-014 90 90   XYZ
    dof rx rz
    limits (-90.0 90.0)
           (-45.0 45.0)
  end
  begin
     id 22 
     name lfingers
     direction 1 -4.49051e-011 6.02588e-026   
     length 0.797535   
     axis -3.84436e-014 90 90   XYZ
    dof rx
    limits (0.0 90.0)
  end
  begin
     id 23
     name lthumb
     direction 0.707107 -6.34901e-011 0.707107   
     length 1.14511   
     axis -90 45 2.19363e-014   XYZ
    dof rx rz
    limits (-45.0 45.0)
           (-45.0 45.0)
  end
  begin
     id 24 
     name rclavicle
     direction -0.893894 0.441652 -0.0767889   
     length 3.29361  
     axis 0 0 0   XYZ 
    dof ry rz
    limits (-10.0 20.0)
           (-20.0 0.0)
  end
  begin
     id 25 
     name rhumerus
     direction -1 -4.48945e-011 8.0491e-028  
     length 4.71404   
     axis 180 30 90   XYZ
    dof rx ry rz
    limits (-90.0 60.0)
           (-90.0 90.0)
           (-90.0 90.0)
  end
  begin
     id 26 
     name rradius
     direction -1 -4.48986e-011 9.27795e-027   
     length 2.83468   
     axis 180 30 90   XYZ
    dof rx
    limits (-10.0 170.0)
  end
  begin
     id 27 
     name rwrist
     direction -1 -4.49029e-011 1.5064e-026   
     length 1.41734   
     axis -9.31234e-015 -90 -90   XYZ
    dof ry
    limits (-180.0 0.0)
  end
  begin
     id 28
     name rhand
     direction -1 -4.48857e-011 3.01165e-026   
     length 0.868195   
     axis -1.92217e-014 -90 -90   XYZ
    dof rx rz
    limits (-90.0 90.0)
           (-45.0 45.0)
  end
  begin
     id 29
     name rfingers
     direction -1 -4.49048e-011 6.02585e-026   
     length 0.699961   
     axis -3.84436e-014 -90 -90   XYZ
    dof rx
    limits (0.0 90.0)
  end
  begin
     id 30
     name rthumb
     direction -0.707107 -6.34854e-011 0.707107   
     length 1.00501   
     axis -90 -45 -2.19363e-014   XYZ
    dof rx rz
    limits (-45.0 45.0)
           (-45.0 45.0)
  end
:hierarchy
  begin
    root lhipjoint rhipjoint lowerback
    lhipjoint lfemur
    lfemur ltibia
    ltibia lfoot
    lfoot ltoes
    rhipjoint rfemur
    rfemur rtibia
    rtibia rfoot
    rfoot rtoes
    lowerback upperback
    upperback thorax
    thorax lowerneck lclavicle rclavicle
    lowerneck upperneck
    upperneck head
    lclavicle lhumerus
    lhumerus lradius
    lradius lwrist
    lwrist lhand lthumb
    lhand lfingers
    rclavicle rhumerus
    rhumerus rradius
    rradius rwrist
    rwrist rhand rthumb
    rhand rfingers
  end

#!OML:ASF H:\ManfredObstacles\Project 1\Capture day 2\Session 1\male.ASF
:FULLY-SPECIFIED
:DEGREES
81
root -10.1 15.2019 2.22474 -171.875 23.7038 172.266
lowerback 1.75291 2.87621 -0.780824
upperback 0.896181 3.85477 -1.80079
thorax 0.0100678 1.94423 -1.4708
lowerneck -35.469 -3.5566 -0.227831
upperneck 40.8425 -3.38092 -0.0675796
head 24.2991 -0.532786 -0.738308
rclavicle -8.32908e-014 -2.14687e-014
rhumerus -38.223 17.6437 -87.056
rradius 75.0588
rwrist 12.0289
rhand -15.634 -5.80144
rfingers 7.12502
rthumb 10.5532 -35.5165
lclavicle -8.32908e-014 -2.14687e-014
lhumerus -60.5369 -19.3757 92.0611
lradius 91.6862
lwrist -18.9819
lhand -15.505 8.1041
lfingers 7.12502
lthumb 10.6776 37.8128
rfemur -11.1339 7.39961 30.5288
rtibia 40.6032
rfoot -14.4681 -14.0698
rtoes -24.1319
lfemur -43.4895 0.550185 -18.4161
ltibia 95.176
lfoot 18.446 14.2425
ltoes 5.54812
82
root -9.96938 15.3185 1.90286 -171.607 24.4315 172.331
lowerback 1.55998 3.2629 -0.673778
upperback 0.773558 4.37373 -1.97597
thorax 0.0244036 2.20473 -1.70918
lowerneck -35.3196 -3.88837 -0.43873
upperneck 40.96 -3.90692 0.262379
head 24.3809 -0.680976 -0.662555
rclavicle -3.51849e-014 2.22639e-014
rhumerus -38.097 18.533 -87.4591
rradius 77.0987
rwrist 11.4834
rhand -15.5171 -5.70305
rfingers 7.12502
rthumb 10.666 -35.4123
lclavicle -3.51849e-014 2.22639e-014
lhumerus -61.2833 -19.9009 91.8686
lradius 92.1753
lwrist -19.0513
lhand -15.4531 7.73675
lfingers 7.12502
lthumb 10.7278 37.4428
rfemur -9.20151 7.55279 30.3078
rtibia 38.518
rfoot -12.3173 -12.5047
rtoes -25.5261
lfemur -45.2379 -0.309018 -18.1501
ltibia 93.9488
lfoot 18.125 14.825
ltoes 5.60187
83
root -9.83205 15.4451 1.57516 -171.327 25.0703 172.377
lowerback 1.31094 3.61347 -0.592432
upperback 0.639865 4.84589 -2.16251
thorax 0.0613138 2.44216 -1.93824
lowerneck -35.1438 -4.19928 -0.610293
upperneck 41.0778 -4.41927 0.583952
head 24.4585 -0.817555 -0.593127
rclavicle -3.39922e-014 2.78299e-014
rhumerus -38.053 19.3501 -87.844
rradius 78.973
rwrist 11.0366
rhand -15.3534 -5.3835
rfingers 7.12502
rthumb 10.8238 -35.0846
lclavicle -3.39922e-014 2.78299e-014
lhumerus -62.0204 -20.3796 91.6755
lradius 92.6671
lwrist -19.1392
lhand -15.387 7.4309
lfingers 7.12502
lthumb 10.7914 37.1337
rfemur -7.27781 7.60662 30.0397
rtibia 36.2761
rfoot -9.83451 -10.7888
rtoes -26.6819
lfemur -46.7866 -1.22842 -17.8624
ltibia 92.3394
lfoot 17.9086 15.3936
ltoes 5.58995
84
root -9.68906 15.5796 1.24235 -171.024 25.6207 172.389
lowerback 0.995398 3.91795 -0.540501
upperback 0.494766 5.25856 -2.36187
thorax 0.124574 2.65034 -2.15605
lowerneck -34.9556 -4.4806 -0.754334
upperneck 41.1827 -4.89898 0.895399
head 24.5238 -0.940442 -0.523847
rclavicle 2.50469e-014 1.74931e-014
rhumerus -38.0564 20.1098 -88.2044
rradius 80.6766
rwrist 10.7854
rhand -15.0819 -4.94984
rfingers 7.12502
rthumb 11.0857 -34.6371
lclavicle 2.50469e-014 1.74931e-014
lhumerus -62.7509 -20.7869 91.477
lradius 93.1714
lwrist -19.2148
lhand -15.3094 7.18284
lfingers 7.12502
lthumb 10.8664 36.8817
rfemur -5.39762 7.54614 29.7024
rtibia 33.8999
rfoot -6.9999 -8.96727
rtoes -27.5383
lfemur -48.1593 -2.19368 -17.5708
ltibia 90.3781
lfoot 17.7957 15.9056
ltoes 5.49731
85
root -9.54082 15.7196 0.90463 -170.714 26.1231 172.368
lowerback 0.631498 4.18696 -0.525526
upperback 0.3398 5.62626 -2.57428
thorax 0.204311 2.83667 -2.35994
lowerneck -34.7875 -4.74126 -0.879705
upperneck 41.2903 -5.35211 1.19222
head 24.6032 -1.05282 -0.458173
rclavicle -6.16232e-015 3.81667e-014
rhumerus -38.1004 20.8154 -88.5473
rradius 82.197
rwrist 10.7444
rhand -14.7578 -4.41357
rfingers 7.12502
rthumb 11.3984 -34.0838
lclavicle -6.16232e-015 3.81667e-014
lhumerus -63.4859 -21.1196 91.2712
lradius 93.6905
lwrist -19.2887
lhand -15.2275 6.99582
lfingers 7.12502
lthumb 10.9453 36.6905
rfemur -3.55601 7.40804 29.291
rtibia 31.4057
rfoot -3.77993 -7.12446
rtoes -28.1014
lfemur -49.3396 -3.1483 -17.2808
ltibia 88.099
lfoot 17.714 16.3755
ltoes 5.42175
86
root -9.38823 15.8623 0.563094 -170.418 26.5904 172.304
lowerback 0.2521 4.41719 -0.555673
upperback 0.176725 5.9446 -2.7974
thorax 0.281719 2.99903 -2.54596
lowerneck -34.6412 -4.97193 -0.968465
upperneck 41.4142 -5.76342 1.45609
head 24.7063 -1.14774 -0.405018
rclavicle -2.96189e-014 2.3059e-014
rhumerus -38.1898 21.5067 -88.875
rradius 83.558
rwrist 10.9056
rhand -14.3988 -3.83458
rfingers 7.12502
rthumb 11.7446 -33.4853
lclavicle -2.96189e-014 2.3059e-014
lhumerus -64.2414 -21.3649 91.0657
lradius 94.2416
lwrist -19.258
lhand -15.1591 6.86059
lfingers 7.12502
lthumb 11.0113 36.5518
rfemur -1.75092 7.21651 28.8024
rtibia 28.8164
rfoot -0.129068 -5.37749
rtoes -28.3785
lfemur -50.3254 -4.05991 -17.0102
ltibia 85.5308
lfoot 17.6412 16.7442
ltoes 5.34446
87
root -9.2317 16.0051 0.218487 -170.139 27.0463 172.204
lowerback -0.138953 4.61615 -0.624812
upperback 0.000302809 6.22411 -3.03189
thorax 0.349397 3.14273 -2.71944
lowerneck -34.5003 -5.16687 -1.03156
upperneck 41.5395 -6.11969 1.69086
head 24.8121 -1.22372 -0.356082
rclavicle 1.14301e-014 -3.10104e-014
rhumerus -38.3409 22.179 -89.2074
rradius 84.7702
rwrist 11.2537
rhand -14.0514 -3.2661
rfingers 7.12502
rthumb 12.0796 -32.8974
lclavicle 1.14301e-014 -3.10104e-014
lhumerus -65.0304 -21.5398 90.8637
lradius 94.8317
lwrist -19.1098
lhand -15.0998 6.78699
lfingers 7.12502
lthumb 11.0685 36.4751
rfemur 0.0123834 7.0123 28.2522
rtibia 26.1615
rfoot 3.963 -3.84091
rtoes -28.2653
lfemur -51.122 -4.89022 -16.7658
ltibia 82.7087
lfoot 17.5761 16.9124
ltoes 5.29658
88
root -9.07146 16.1457 -0.127896 -169.878 27.5185 172.071
lowerback -0.523802 4.79086 -0.746195
upperback -0.194912 6.47383 -3.26834
thorax 0.388914 3.27214 -2.86608
lowerneck -34.3381 -5.33485 -1.08273
upperneck 41.6685 -6.42416 1.89864
head 24.9121 -1.28385 -0.307822
rclavicle -7.2457e-014 -2.06736e-014
rhumerus -38.5598 22.8563 -89.5472
rradius 85.8405
rwrist 11.6628
rhand -13.7612 -2.70539
rfingers 7.12502
rthumb 12.3593 -32.3201
lclavicle -7.2457e-014 -2.06736e-014
lhumerus -65.8515 -21.6328 90.6624
lradius 95.4615
lwrist -18.9073
lhand -15.0505 6.76652
lfingers 7.12502
lthumb 11.116 36.4521
rfemur 1.72779 6.83913 27.6587
rtibia 23.4862
rfoot 8.40549 -2.63226
rtoes -27.8008
lfemur -51.735 -5.6047 -16.5542
ltibia 79.6629
lfoot 17.5046 16.8735
ltoes 5.28206
89
root -8.90784 16.2817 -0.474877 -169.623 28.0092 171.929
lowerback -0.897189 4.94699 -0.89972
upperback -0.408585 6.7013 -3.50521
thorax 0.399299 3.39113 -2.99639
lowerneck -34.165 -5.47945 -1.11473
upperneck 41.8038 -6.69011 2.08389
head 25.0123 -1.33032 -0.263236
rclavicle 4.47266e-015 0
rhumerus -38.8521 23.5241 -89.9041
rradius 86.7997
rwrist 12.0702
rhand -13.5478 -2.19838
rfingers 7.12502
rthumb 12.5651 -31.8005
lclavicle 4.47266e-015 0
lhumerus -66.7027 -21.6802 90.4628
lradius 96.1433
lwrist -18.619
lhand -15.0099 6.78975
lfingers 7.12502
lthumb 11.1552 36.4732
rfemur 3.37812 6.7166 27.0653
rtibia 20.8561
rfoot 13.0386 -1.782
rtoes -26.8617
lfemur -52.1825 -6.19031 -16.3651
ltibia 76.4314
lfoot 17.4337 16.5759
ltoes 5.24195
90
root -8.74095 16.4121 -0.822412 -169.365 28.5449 171.79
lowerback -1.27266 5.09478 -1.08475
upperback -0.636714 6.92022 -3.73087
thorax 0.391014 3.50645 -3.09753
lowerneck -33.9578 -5.60288 -1.14514
upperneck 41.9466 -6.90976 2.25435
head 25.1058 -1.36243 -0.211318
rclavicle -2.16675e-014 2.38542e-015
rhumerus -39.1997 24.1655 -90.2564
rradius 87.6521
rwrist 12.507
rhand -13.3303 -1.79421
rfingers 7.12502
rthumb 12.7748 -31.3834
lclavicle -2.16675e-014 2.38542e-015
lhumerus -67.5549 -21.6777 90.2666
lradius 96.8591
lwrist -18.3561
lhand -14.9537 6.8665
lfingers 7.12502
lthumb 11.2094 36.547
rfemur 4.93808 6.63632 26.4838
rtibia 18.3567
rfoot 17.657 -1.22857
rtoes -25.427
lfemur -52.469 -6.62642 -16.2033
ltibia 73.0441
lfoot 17.368 16.019
ltoes 5.18081
